2015007_C4_03_grf
version=1
nRows=37
nColumns=19
inDegrees=no
endheader
time	ground_force_1_vx	ground_force_1_vy	ground_force_1_vz	ground_force_1_px	ground_force_1_py	ground_force_1_pz	ground_force_1_mx	ground_force_1_my	ground_force_1_mz	ground_force_2_vx	ground_force_2_vy	ground_force_2_vz	ground_force_2_px	ground_force_2_py	ground_force_2_pz	ground_force_2_mx	ground_force_2_my	ground_force_2_mz
      0.41500000	      0.00000000	      0.00000000	      0.00000000	      0.00000000	      0.00000000	      0.00000000	      0.00000000	      0.00000000	      0.00000000	     -7.05080945	    502.87767500	    -25.18859804	     -0.82185911	      0.00000000	      0.31494791	      0.00000000	      1.46657185	      0.00000000
      0.41600000	      0.00000000	      0.00000000	      0.00000000	      0.00000000	      0.00000000	      0.00000000	      0.00000000	      0.00000000	      0.00000000	     -6.87925704	    503.66525352	    -25.28335154	     -0.82127911	      0.00000000	      0.31502245	      0.00000000	      1.46887422	      0.00000000
      0.41700000	      0.00000000	      0.00000000	      0.00000000	      0.00000000	      0.00000000	      0.00000000	      0.00000000	      0.00000000	      0.00000000	     -6.70569274	    504.46490571	    -25.37621558	     -0.82070112	      0.00000000	      0.31509591	      0.00000000	      1.47138600	      0.00000000
      0.41800000	      0.00000000	      0.00000000	      0.00000000	      0.00000000	      0.00000000	      0.00000000	      0.00000000	      0.00000000	      0.00000000	     -6.53042737	    505.27431071	    -25.46759248	     -0.82012490	      0.00000000	      0.31516852	      0.00000000	      1.47407555	      0.00000000
      0.41900000	      0.00000000	      0.00000000	      0.00000000	      0.00000000	      0.00000000	      0.00000000	      0.00000000	      0.00000000	      0.00000000	     -6.35291240	    506.09615445	    -25.55714548	     -0.81955107	      0.00000000	      0.31524007	      0.00000000	      1.47699661	      0.00000000
      0.42000000	      0.00000000	      0.00000000	      0.00000000	      0.00000000	      0.00000000	      0.00000000	      0.00000000	      0.00000000	      0.00000000	     -6.17348822	    506.92806393	    -25.64527392	     -0.81897930	      0.00000000	      0.31531078	      0.00000000	      1.48010993	      0.00000000
      0.42100000	      0.00000000	      0.00000000	      0.00000000	      0.00000000	      0.00000000	      0.00000000	      0.00000000	      0.00000000	      0.00000000	     -5.99152362	    507.77288154	    -25.73166788	     -0.81841030	      0.00000000	      0.31538047	      0.00000000	      1.48346966	      0.00000000
      0.42200000	      0.00000000	      0.00000000	      0.00000000	      0.00000000	      0.00000000	      0.00000000	      0.00000000	      0.00000000	      0.00000000	     -5.80738904	    508.62823427	    -25.81671774	     -0.81784365	      0.00000000	      0.31544934	      0.00000000	      1.48703112	      0.00000000
      0.42300000	      0.00000000	      0.00000000	      0.00000000	      0.00000000	      0.00000000	      0.00000000	      0.00000000	      0.00000000	      0.00000000	     -5.62035642	    509.49709490	    -25.90015680	     -0.81728012	      0.00000000	      0.31551715	      0.00000000	      1.49085049	      0.00000000
      0.42400000	      0.00000000	      0.00000000	      0.00000000	      0.00000000	      0.00000000	      0.00000000	      0.00000000	      0.00000000	      0.00000000	     -5.43084787	    510.37706435	    -25.98236501	     -0.81671922	      0.00000000	      0.31558411	      0.00000000	      1.49488061	      0.00000000
      0.42500000	      0.00000000	      0.00000000	      0.00000000	      0.00000000	      0.00000000	      0.00000000	      0.00000000	      0.00000000	      0.00000000	     -5.23804151	    511.27142832	    -26.06310844	     -0.81616180	      0.00000000	      0.31564995	      0.00000000	      1.49917771	      0.00000000
      0.42600000	      0.00000000	      0.00000000	      0.00000000	      0.00000000	      0.00000000	      0.00000000	      0.00000000	      0.00000000	      0.00000000	     -5.04243420	    512.17763126	    -26.14274919	     -0.81560731	      0.00000000	      0.31571487	      0.00000000	      1.50369009	      0.00000000
      0.42700000	      0.00000000	      0.00000000	      0.00000000	      0.00000000	      0.00000000	      0.00000000	      0.00000000	      0.00000000	      0.00000000	     -4.84311837	    513.09903711	    -26.22109652	     -0.81505667	      0.00000000	      0.31577860	      0.00000000	      1.50847054	      0.00000000
      0.42800000	      0.00000000	      0.00000000	      0.00000000	      0.00000000	      0.00000000	      0.00000000	      0.00000000	      0.00000000	      0.00000000	     -4.64066677	    514.03306425	    -26.29848719	     -0.81450927	      0.00000000	      0.31584134	      0.00000000	      1.51346287	      0.00000000
      0.42900000	      0.00000000	      0.00000000	      0.00000000	      0.00000000	      0.00000000	      0.00000000	      0.00000000	      0.00000000	      0.00000000	     -4.43407823	    514.98315483	    -26.37478560	     -0.81396611	      0.00000000	      0.31590282	      0.00000000	      1.51871563	      0.00000000
      0.43000000	      0.00000000	      0.00000000	      0.00000000	      0.00000000	      0.00000000	      0.00000000	      0.00000000	      0.00000000	      0.00000000	     -4.22400329	    515.94644040	    -26.45028830	     -0.81342653	      0.00000000	      0.31596326	      0.00000000	      1.52417114	      0.00000000
      0.43100000	      0.00000000	      0.00000000	      0.00000000	      0.00000000	      0.00000000	      0.00000000	      0.00000000	      0.00000000	      0.00000000	     -4.00934624	    516.92659780	    -26.52491331	     -0.81289162	      0.00000000	      0.31602239	      0.00000000	      1.52987149	      0.00000000
      0.43200000	      0.00000000	      0.00000000	      0.00000000	      0.00000000	      0.00000000	      0.00000000	      0.00000000	      0.00000000	      0.00000000	     -3.79084260	    517.92062819	    -26.59893334	     -0.81236065	      0.00000000	      0.31608044	      0.00000000	      1.53575897	      0.00000000
      0.43300000	      0.00000000	      0.00000000	      0.00000000	      0.00000000	      0.00000000	      0.00000000	      0.00000000	      0.00000000	      0.00000000	     -3.56729853	    518.93228665	    -26.67232752	     -0.81183484	      0.00000000	      0.31613713	     -0.00000000	      1.54186798	      0.00000000
      0.43400000	      0.00000000	      0.00000000	      0.00000000	      0.00000000	      0.00000000	      0.00000000	      0.00000000	      0.00000000	      0.00000000	     -3.33953509	    519.95839179	    -26.74532235	     -0.81131336	      0.00000000	      0.31619272	      0.00000000	      1.54814320	      0.00000000
      0.43500000	      0.00000000	      0.00000000	      0.00000000	      0.00000000	      0.00000000	      0.00000000	      0.00000000	      0.00000000	      0.00000000	     -3.10625881	    521.00301161	    -26.81794614	     -0.81079755	      0.00000000	      0.31624691	      0.00000000	      1.55461271	      0.00000000
      0.43600000	      0.00000000	      0.00000000	      0.00000000	      0.00000000	      0.00000000	      0.00000000	      0.00000000	      0.00000000	      0.00000000	     -2.86837737	    522.06280828	    -26.89036429	     -0.81028649	      0.00000000	      0.31629999	      0.00000000	      1.56122627	      0.00000000
      0.43700000	      0.00000000	      0.00000000	      0.00000000	      0.00000000	      0.00000000	      0.00000000	      0.00000000	      0.00000000	      0.00000000	     -2.62449449	    523.14192802	    -26.96263343	     -0.80978166	      0.00000000	      0.31635167	      0.00000000	      1.56800646	      0.00000000
      0.43800000	      0.00000000	      0.00000000	      0.00000000	      0.00000000	      0.00000000	      0.00000000	      0.00000000	      0.00000000	      0.00000000	     -2.37561343	    524.23685044	    -27.03487873	     -0.80928204	      0.00000000	      0.31640225	      0.00000000	      1.57490951	      0.00000000
      0.43900000	      0.00000000	      0.00000000	      0.00000000	      0.00000000	      0.00000000	      0.00000000	      0.00000000	      0.00000000	      0.00000000	     -2.12023500	    525.35195649	    -27.10720748	     -0.80878923	      0.00000000	      0.31645143	      0.00000000	      1.58195166	      0.00000000
      0.44000000	      0.00000000	      0.00000000	      0.00000000	      0.00000000	      0.00000000	      0.00000000	      0.00000000	      0.00000000	      0.00000000	     -1.85945479	    526.48343891	    -27.17970312	     -0.80830210	      0.00000000	      0.31649952	      0.00000000	      1.58909261	      0.00000000
      0.44100000	      0.00000000	      0.00000000	      0.00000000	      0.00000000	      0.00000000	      0.00000000	      0.00000000	      0.00000000	      0.00000000	     -1.59166980	    527.63591334	    -27.25252062	     -0.80782237	      0.00000000	      0.31654623	      0.00000000	      1.59633846	      0.00000000
      0.44200000	      0.00000000	      0.00000000	      0.00000000	      0.00000000	      0.00000000	      0.00000000	      0.00000000	      0.00000000	      0.00000000	     -1.31808058	    528.80539000	    -27.32569277	     -0.80734879	      0.00000000	      0.31659188	      0.00000000	      1.60365376	      0.00000000
      0.44300000	      0.00000000	      0.00000000	      0.00000000	      0.00000000	      0.00000000	      0.00000000	      0.00000000	      0.00000000	      0.00000000	     -1.03698423	    529.99653667	    -27.39941776	     -0.80688318	      0.00000000	      0.31663619	      0.00000000	      1.61103608	      0.00000000
      0.44400000	      0.00000000	      0.00000000	      0.00000000	      0.00000000	      0.00000000	      0.00000000	      0.00000000	      0.00000000	      0.00000000	     -0.74968260	    531.20536357	    -27.47367322	     -0.80642417	      0.00000000	      0.31667943	      0.00000000	      1.61845591	      0.00000000
      0.44500000	      0.00000000	      0.00000000	      0.00000000	      0.00000000	      0.00000000	      0.00000000	      0.00000000	      0.00000000	      0.00000000	     -0.45438170	    532.43674710	    -27.54868865	     -0.80597367	      0.00000000	      0.31672135	      0.00000000	      1.62590126	      0.00000000
      0.44600000	      0.00000000	      0.00000000	      0.00000000	      0.00000000	      0.00000000	      0.00000000	      0.00000000	      0.00000000	      0.00000000	     -0.15249260	    533.68654102	    -27.62437761	     -0.80553019	      0.00000000	      0.31676217	      0.00000000	      1.63334880	      0.00000000
      0.44700000	      0.00000000	      0.00000000	      0.00000000	      0.00000000	      0.00000000	      0.00000000	      0.00000000	      0.00000000	      0.00000000	      0.15785762	    534.95975211	    -27.70099044	     -0.80509573	      0.00000000	      0.31680161	      0.00000000	      1.64077566	      0.00000000
      0.44800000	      0.00000000	      0.00000000	      0.00000000	      0.00000000	      0.00000000	      0.00000000	      0.00000000	      0.00000000	      0.00000000	      0.47514949	    536.25205159	    -27.77839601	     -0.80466866	      0.00000000	      0.31683992	      0.00000000	      1.64816710	      0.00000000
      0.44900000	      0.00000000	      0.00000000	      0.00000000	      0.00000000	      0.00000000	      0.00000000	      0.00000000	      0.00000000	      0.00000000	      0.80132621	    537.56857663	    -27.85685360	     -0.80425107	      0.00000000	      0.31687678	      0.00000000	      1.65549243	      0.00000000
      0.45000000	      0.00000000	      0.00000000	      0.00000000	      0.00000000	      0.00000000	      0.00000000	      0.00000000	      0.00000000	      0.00000000	      1.13477279	    538.90476376	    -27.93618739	     -0.80384125	      0.00000000	      0.31691247	      0.00000000	      1.66274842	      0.00000000
      0.45100000	      0.00000000	      0.00000000	      0.00000000	      0.00000000	      0.00000000	      0.00000000	      0.00000000	      0.00000000	      0.00000000	      1.47750520	    540.26585445	    -28.01665366	     -0.80344135	      0.00000000	      0.31694663	     -0.00000000	      1.66989835	     -0.00000000
